<svg width="35" height="35" viewBox="0 0 35 35" fill="none" xmlns="http://www.w3.org/2000/svg">
<g clip-path="url(#clip0)">
<path d="M17.5 0.729156C7.83125 0.729156 0 8.42916 0 17.9258C0 25.5252 5.01375 31.9696 11.9656 34.2417C12.8406 34.4035 13.1615 33.8712 13.1615 33.4148C13.1615 33.0065 13.1469 31.9244 13.1396 30.4908C8.27167 31.5277 7.245 28.1837 7.245 28.1837C6.44875 26.1989 5.29812 25.6681 5.29812 25.6681C3.71292 24.6021 5.42063 24.6239 5.42063 24.6239C7.17792 24.7435 8.10104 26.3958 8.10104 26.3958C9.66146 29.0252 12.1975 28.2654 13.1979 27.8264C13.3554 26.7137 13.806 25.9569 14.3063 25.5267C10.4198 25.0964 6.335 23.6177 6.335 17.0289C6.335 15.1521 7.01313 13.6179 8.13604 12.4148C7.93917 11.9802 7.34854 10.2317 8.28917 7.86332C8.28917 7.86332 9.75479 7.40249 13.1017 9.62645C14.5017 9.24436 15.9892 9.05478 17.4767 9.04603C18.9642 9.05478 20.4517 9.24436 21.8517 9.62645C25.1767 7.40249 26.6423 7.86332 26.6423 7.86332C27.5829 10.2317 26.9923 11.9802 26.8173 12.4148C27.9329 13.6179 28.611 15.1521 28.611 17.0289C28.611 23.6352 24.5204 25.0892 20.6267 25.5121C21.2392 26.0283 21.8079 27.0827 21.8079 28.6942C21.8079 30.9954 21.786 32.8446 21.786 33.4031C21.786 33.8537 22.0923 34.3919 22.9892 34.2198C29.9906 31.9623 35 25.5135 35 17.9258C35 8.42916 27.1644 0.729156 17.5 0.729156Z" fill="black"/>
</g>
<defs>
<clipPath id="clip0">
<rect width="35" height="35" fill="white"/>
</clipPath>
</defs>
</svg>
