<svg width="35" height="35" viewBox="0 0 35 35" fill="none" xmlns="http://www.w3.org/2000/svg">
<path d="M31.5 0H3.5C1.575 0 0 1.575 0 3.5V31.5C0 33.425 1.575 35 3.5 35H31.5C33.425 35 35 33.425 35 31.5V3.5C35 1.575 33.425 0 31.5 0ZM10.5 29.75H5.25V14H10.5V29.75ZM7.875 11.025C6.125 11.025 4.725 9.625 4.725 7.875C4.725 6.125 6.125 4.725 7.875 4.725C9.625 4.725 11.025 6.125 11.025 7.875C11.025 9.625 9.625 11.025 7.875 11.025ZM29.75 29.75H24.5V20.475C24.5 19.0751 23.275 17.85 21.875 17.85C20.475 17.85 19.25 19.0751 19.25 20.475V29.75H14V14H19.25V16.1C20.125 14.7 22.05 13.65 23.625 13.65C26.95 13.65 29.75 16.45 29.75 19.775V29.75Z" fill="black"/>
</svg>
